# xmcd
#
# Track frame offsets:
#	150
#	10582
#	18459
#	29285
#	40735
#	52648
#	65961
#	79774
#	91309
#	100364
#	111331
#	123349
#	132681
#	147497
#	161739
#	174309
#	187898
#	202737
#	214344
#	225904
#	241963
#	259369
#
# Disc length: 3658 seconds
#
# Revision: 0
# Processed by: cddbd v1.5PL3 Copyright (c) Steve Scherf et al.
# Submitted via: dBpowerAMP V4.0
#
DISCID=2c0e4816
DTITLE=Gavioes do Forró - Os grandes sucessos
DYEAR=2000
DGENRE=Pop
TTITLE0=Milonga da Fronteira
TTITLE1=Coração de Luto
TTITLE2=Na minha terra tem quem queira
TTITLE3=Dá alcool pra ele
TTITLE4=tchaka, tchaka na mutchaka
TTITLE5=popozuda
TTITLE6=pra lá de bagdá
TTITLE7=firim fimfim com funfun
TTITLE8=mulher dos 15 aos 40
TTITLE9=lora paraguai
TTITLE10=mucho macho
TTITLE11=dançando com a cumadre
TTITLE12=bicho bom e mulher
TTITLE13=solteirona
TTITLE14=taradona
TTITLE15=o campeao
TTITLE16=nao me deixe
TTITLE17=amor mercenário
TTITLE18=bincar de solidao
TTITLE19=nova ilusao 
TTITLE20=botar voce no colo
TTITLE21=é meu jeito
EXTD=
EXTT0=
EXTT1=
EXTT2=
EXTT3=
EXTT4=
EXTT5=
EXTT6=
EXTT7=
EXTT8=
EXTT9=
EXTT10=
EXTT11=
EXTT12=
EXTT13=
EXTT14=
EXTT15=
EXTT16=
EXTT17=
EXTT18=
EXTT19=
EXTT20=
EXTT21=
PLAYORDER=
